<svg width="20" height="18" viewBox="0 0 20 18" fill="none" xmlns="http://www.w3.org/2000/svg">
<path d="M17.6433 0.970804C15.0064 -0.7612 11.7503 0.0470632 9.99234 2.02928C8.2344 0.0470632 4.97823 -0.77081 2.34136 0.970804C0.942994 1.89454 0.0640485 3.45337 0.00411378 5.09877C-0.135706 8.83225 3.30023 11.8249 8.54405 16.4147L8.64393 16.5012C9.40301 17.1652 10.5716 17.1652 11.3308 16.4916L11.4406 16.3954C16.6844 11.8152 20.1104 8.82264 19.9806 5.08916C19.9206 3.45337 19.0417 1.89454 17.6433 0.970804ZM10.0922 14.9809L9.99234 15.0771L9.89246 14.9809C5.13804 10.8337 2.00174 8.09133 2.00174 5.31046C2.00174 3.38602 3.49998 1.94267 5.49765 1.94267C7.03584 1.94267 8.53404 2.89532 9.06343 4.21355H10.9312C11.4506 2.89532 12.9488 1.94267 14.487 1.94267C16.4847 1.94267 17.9829 3.38602 17.9829 5.31046C17.9829 8.09133 14.8466 10.8337 10.0922 14.9809Z" fill="#335C7A"/>
<path d="M10.8201 1.57803L10.0001 2.40003L9.17606 1.57603C8.16797 0.568076 6.80076 0.00186556 5.37521 0.00195932C3.94965 0.00205309 2.58252 0.568444 1.57456 1.57653C0.566605 2.58462 0.000394525 3.95183 0.000488293 5.37739C0.000582061 6.80294 0.566973 8.17008 1.57506 9.17803L9.47006 17.073C9.61069 17.2135 9.80131 17.2924 10.0001 17.2924C10.1988 17.2924 10.3894 17.2135 10.5301 17.073L18.4321 9.17603C19.439 8.16786 20.0044 6.80119 20.0042 5.37632C20.0041 3.95145 19.4382 2.58494 18.4311 1.57703C17.9314 1.07707 17.3382 0.680465 16.6852 0.409871C16.0323 0.139276 15.3324 0 14.6256 0C13.9187 0 13.2189 0.139276 12.5659 0.409871C11.9129 0.680465 11.3197 1.07707 10.8201 1.57703V1.57803ZM17.3681 8.11803L10.0001 15.483L2.63506 8.11803C2.27209 7.7589 1.98368 7.33158 1.7864 6.86063C1.58911 6.38967 1.48686 5.88437 1.4855 5.37376C1.48414 4.86316 1.58371 4.35732 1.77848 3.88532C1.97325 3.41332 2.25939 2.98447 2.62044 2.62342C2.9815 2.26236 3.41035 1.97622 3.88235 1.78145C4.35435 1.58668 4.86019 1.48711 5.37079 1.48847C5.8814 1.48983 6.3867 1.59208 6.85765 1.78937C7.32861 1.98665 7.75593 2.27506 8.11506 2.63803L9.47306 3.99503C9.54371 4.06577 9.6278 4.12166 9.72036 4.15943C9.81293 4.1972 9.91212 4.21608 10.0121 4.21496C10.1121 4.21385 10.2108 4.19275 10.3025 4.15292C10.3942 4.11309 10.477 4.05533 10.5461 3.98303L11.8801 2.63803C12.6154 1.95361 13.5875 1.58104 14.5919 1.59872C15.5963 1.61639 16.5547 2.02292 17.2654 2.73279C17.9762 3.44266 18.384 4.40053 18.4029 5.4049C18.4219 6.40927 18.0505 7.38185 17.3671 8.11803H17.3681Z" fill="black"/>
</svg>
