<svg width="24" height="25" viewBox="0 0 24 25" fill="none" xmlns="http://www.w3.org/2000/svg">
<g clip-path="url(#clip0_62_786)">
<path d="M15.05 5.01172C16.0267 5.20228 16.9244 5.67998 17.6281 6.38365C18.3317 7.08733 18.8094 7.98498 19 8.96172L15.05 5.01172ZM15.05 1.01172C17.0793 1.23715 18.9716 2.14589 20.4162 3.58873C21.8609 5.03156 22.772 6.92273 23 8.95172L15.05 1.01172ZM22 16.9317V19.9317C22.0011 20.2102 21.9441 20.4859 21.8325 20.7411C21.7209 20.9962 21.5573 21.2253 21.3521 21.4136C21.1468 21.6019 20.9046 21.7452 20.6407 21.8344C20.3769 21.9236 20.0974 21.9568 19.82 21.9317C16.7428 21.5974 13.787 20.5459 11.19 18.8617C8.77382 17.3264 6.72533 15.2779 5.18999 12.8617C3.49997 10.2529 2.44824 7.28271 2.11999 4.19172C2.095 3.91519 2.12787 3.63648 2.21649 3.37334C2.30512 3.11021 2.44756 2.86841 2.63476 2.66334C2.82196 2.45827 3.0498 2.29443 3.30379 2.18224C3.55777 2.07005 3.83233 2.01198 4.10999 2.01172H7.10999C7.5953 2.00694 8.06579 2.1788 8.43376 2.49525C8.80173 2.81171 9.04207 3.25117 9.10999 3.73172C9.23662 4.69179 9.47144 5.63445 9.80999 6.54172C9.94454 6.89964 9.97366 7.28863 9.8939 7.6626C9.81415 8.03656 9.62886 8.37983 9.35999 8.65172L8.08999 9.92172C9.51355 12.4253 11.5864 14.4982 14.09 15.9217L15.36 14.6517C15.6319 14.3829 15.9751 14.1976 16.3491 14.1178C16.7231 14.0381 17.1121 14.0672 17.47 14.2017C18.3773 14.5403 19.3199 14.7751 20.28 14.9017C20.7658 14.9702 21.2094 15.2149 21.5265 15.5892C21.8437 15.9635 22.0122 16.4413 22 16.9317Z" stroke="white" stroke-linecap="round" stroke-linejoin="round"/>
</g>
<defs>
<clipPath id="clip0_62_786">
<rect width="24" height="24" fill="white" transform="translate(0 0.0117188)"/>
</clipPath>
</defs>
</svg>
