<svg width="19" height="20" viewBox="0 0 19 20" fill="none" xmlns="http://www.w3.org/2000/svg">
<path d="M12.375 9.89111C12.375 10.4845 12.1991 11.0645 11.8694 11.5578C11.5398 12.0512 11.0712 12.4357 10.5231 12.6628C9.97487 12.8898 9.37167 12.9492 8.78973 12.8335C8.20779 12.7177 7.67324 12.432 7.25368 12.0124C6.83412 11.5929 6.5484 11.0583 6.43264 10.4764C6.31689 9.89444 6.3763 9.29124 6.60336 8.74306C6.83042 8.19488 7.21494 7.72635 7.70829 7.3967C8.20164 7.06706 8.78166 6.89111 9.375 6.89111C10.1699 6.89359 10.9315 7.21045 11.4936 7.77252C12.0557 8.3346 12.3725 9.09622 12.375 9.89111ZM18.75 5.76611V14.0161C18.75 15.4085 18.1969 16.7439 17.2123 17.7284C16.2277 18.713 14.8924 19.2661 13.5 19.2661H5.25C3.85761 19.2661 2.52226 18.713 1.53769 17.7284C0.553123 16.7439 0 15.4085 0 14.0161V5.76611C0 4.37373 0.553123 3.03837 1.53769 2.0538C2.52226 1.06924 3.85761 0.516113 5.25 0.516113H13.5C14.8924 0.516113 16.2277 1.06924 17.2123 2.0538C18.1969 3.03837 18.75 4.37373 18.75 5.76611ZM13.875 9.89111C13.875 9.0011 13.6111 8.13107 13.1166 7.39105C12.6221 6.65103 11.9193 6.07425 11.0971 5.73366C10.2748 5.39306 9.37001 5.30395 8.49709 5.47758C7.62418 5.65121 6.82236 6.0798 6.19302 6.70913C5.56368 7.33847 5.1351 8.14029 4.96147 9.01321C4.78783 9.88612 4.87695 10.7909 5.21754 11.6132C5.55814 12.4355 6.13491 13.1383 6.87493 13.6327C7.61495 14.1272 8.48498 14.3911 9.375 14.3911C10.5685 14.3911 11.7131 13.917 12.557 13.0731C13.4009 12.2292 13.875 11.0846 13.875 9.89111ZM15.375 5.01611C15.375 4.79361 15.309 4.5761 15.1854 4.3911C15.0618 4.20609 14.8861 4.0619 14.6805 3.97675C14.475 3.8916 14.2488 3.86932 14.0305 3.91273C13.8123 3.95614 13.6118 4.06328 13.4545 4.22062C13.2972 4.37795 13.19 4.57841 13.1466 4.79664C13.1032 5.01486 13.1255 5.24107 13.2106 5.44663C13.2958 5.6522 13.44 5.8279 13.625 5.95152C13.81 6.07513 14.0275 6.14111 14.25 6.14111C14.5484 6.14111 14.8345 6.02259 15.0455 5.81161C15.2565 5.60063 15.375 5.31448 15.375 5.01611Z" fill="white"/>
</svg>
