<svg width="21" height="25" viewBox="0 0 21 25" fill="none" xmlns="http://www.w3.org/2000/svg">
<path d="M10.5 12.5C11.1875 12.5 11.7762 12.2648 12.2663 11.7944C12.7563 11.324 13.0008 10.7592 13 10.1C13 9.44 12.755 8.8748 12.265 8.4044C11.775 7.934 11.1867 7.6992 10.5 7.7C9.8125 7.7 9.22375 7.9352 8.73375 8.4056C8.24375 8.876 7.99917 9.4408 8 10.1C8 10.76 8.245 11.3252 8.735 11.7956C9.225 12.266 9.81333 12.5008 10.5 12.5ZM10.5 24.5C7.14583 21.76 4.64083 19.2152 2.985 16.8656C1.32917 14.516 0.500833 12.3408 0.5 10.34C0.5 7.34 1.50542 4.95 3.51625 3.17C5.52708 1.39 7.855 0.5 10.5 0.5C13.1458 0.5 15.4742 1.39 17.485 3.17C19.4958 4.95 20.5008 7.34 20.5 10.34C20.5 12.34 19.6717 14.5152 18.015 16.8656C16.3583 19.216 13.8533 21.7608 10.5 24.5Z" fill="white"/>
</svg>
