<svg width="40" height="39" viewBox="0 0 40 39" fill="none" xmlns="http://www.w3.org/2000/svg">
<g filter="url(#filter0_ii_128_1244)">
<g clip-path="url(#clip0_128_1244)">
<g filter="url(#filter1_dii_128_1244)">
<path d="M20.0002 38.3039L9.39352 28.0305C7.29575 25.9986 5.86716 23.4098 5.2884 20.5915C4.70963 17.7733 5.00669 14.852 6.14201 12.1973C7.27733 9.54251 9.19992 7.27345 11.6667 5.67703C14.1334 4.0806 17.0335 3.22852 20.0002 3.22852C22.9669 3.22852 25.867 4.0806 28.3337 5.67703C30.8004 7.27345 32.723 9.54251 33.8584 12.1973C34.9937 14.852 35.2907 17.7733 34.712 20.5915C34.1332 23.4098 32.7046 25.9986 30.6068 28.0305L20.0002 38.3039ZM28.2502 25.7479C29.8817 24.1675 30.9927 22.154 31.4428 19.962C31.8928 17.77 31.6617 15.498 30.7787 13.4333C29.8956 11.3685 28.4003 9.60375 26.4817 8.36213C24.5632 7.12051 22.3076 6.4578 20.0002 6.4578C17.6928 6.4578 15.4372 7.12051 13.5187 8.36213C11.6001 9.60375 10.1048 11.3685 9.22171 13.4333C8.33865 15.498 8.10754 17.77 8.55761 19.962C9.00767 22.154 10.1187 24.1675 11.7502 25.7479L20.0002 33.7386L28.2502 25.7479ZM20.0002 20.9857C19.1161 20.9857 18.2683 20.6455 17.6432 20.04C17.018 19.4346 16.6669 18.6134 16.6669 17.7571C16.6669 16.9008 17.018 16.0796 17.6432 15.4741C18.2683 14.8686 19.1161 14.5285 20.0002 14.5285C20.8842 14.5285 21.7321 14.8686 22.3572 15.4741C22.9823 16.0796 23.3335 16.9008 23.3335 17.7571C23.3335 18.6134 22.9823 19.4346 22.3572 20.04C21.7321 20.6455 20.8842 20.9857 20.0002 20.9857Z" fill="white"/>
</g>
</g>
</g>
<defs>
<filter id="filter0_ii_128_1244" x="-13.5745" y="-11.3121" width="59.6076" height="58.3507" filterUnits="userSpaceOnUse" color-interpolation-filters="sRGB">
<feFlood flood-opacity="0" result="BackgroundImageFix"/>
<feBlend mode="normal" in="SourceGraphic" in2="BackgroundImageFix" result="shape"/>
<feColorMatrix in="SourceAlpha" type="matrix" values="0 0 0 0 0 0 0 0 0 0 0 0 0 0 0 0 0 0 127 0" result="hardAlpha"/>
<feOffset dx="6.0331" dy="-11.3121"/>
<feGaussianBlur stdDeviation="11.3121"/>
<feComposite in2="hardAlpha" operator="arithmetic" k2="-1" k3="1"/>
<feColorMatrix type="matrix" values="0 0 0 0 0 0 0 0 0 0 0 0 0 0 0 0 0 0 0.2 0"/>
<feBlend mode="normal" in2="shape" result="effect1_innerShadow_128_1244"/>
<feColorMatrix in="SourceAlpha" type="matrix" values="0 0 0 0 0 0 0 0 0 0 0 0 0 0 0 0 0 0 127 0" result="hardAlpha"/>
<feOffset dx="-13.5745" dy="8.29551"/>
<feGaussianBlur stdDeviation="11.3121"/>
<feComposite in2="hardAlpha" operator="arithmetic" k2="-1" k3="1"/>
<feColorMatrix type="matrix" values="0 0 0 0 1 0 0 0 0 1 0 0 0 0 1 0 0 0 1 0"/>
<feBlend mode="normal" in2="effect1_innerShadow_128_1244" result="effect2_innerShadow_128_1244"/>
</filter>
<filter id="filter1_dii_128_1244" x="-38.7398" y="-31.4618" width="111.447" height="116.522" filterUnits="userSpaceOnUse" color-interpolation-filters="sRGB">
<feFlood flood-opacity="0" result="BackgroundImageFix"/>
<feColorMatrix in="SourceAlpha" type="matrix" values="0 0 0 0 0 0 0 0 0 0 0 0 0 0 0 0 0 0 127 0" result="hardAlpha"/>
<feMorphology radius="3.01655" operator="dilate" in="SourceAlpha" result="effect1_dropShadow_128_1244"/>
<feOffset dx="-3.01655" dy="6.0331"/>
<feGaussianBlur stdDeviation="18.8534"/>
<feColorMatrix type="matrix" values="0 0 0 0 0 0 0 0 0 0 0 0 0 0 0 0 0 0 0.1 0"/>
<feBlend mode="normal" in2="BackgroundImageFix" result="effect1_dropShadow_128_1244"/>
<feBlend mode="normal" in="SourceGraphic" in2="effect1_dropShadow_128_1244" result="shape"/>
<feColorMatrix in="SourceAlpha" type="matrix" values="0 0 0 0 0 0 0 0 0 0 0 0 0 0 0 0 0 0 127 0" result="hardAlpha"/>
<feOffset dx="-4.52482" dy="3.01655"/>
<feGaussianBlur stdDeviation="1.50827"/>
<feComposite in2="hardAlpha" operator="arithmetic" k2="-1" k3="1"/>
<feColorMatrix type="matrix" values="0 0 0 0 1 0 0 0 0 1 0 0 0 0 1 0 0 0 0.25 0"/>
<feBlend mode="normal" in2="shape" result="effect2_innerShadow_128_1244"/>
<feColorMatrix in="SourceAlpha" type="matrix" values="0 0 0 0 0 0 0 0 0 0 0 0 0 0 0 0 0 0 127 0" result="hardAlpha"/>
<feOffset dx="1.50827" dy="-2.26241"/>
<feGaussianBlur stdDeviation="2.26241"/>
<feComposite in2="hardAlpha" operator="arithmetic" k2="-1" k3="1"/>
<feColorMatrix type="matrix" values="0 0 0 0 0 0 0 0 0 0 0 0 0 0 0 0 0 0 0.25 0"/>
<feBlend mode="normal" in2="effect2_innerShadow_128_1244" result="effect3_innerShadow_128_1244"/>
</filter>
<clipPath id="clip0_128_1244">
<rect width="40" height="38.7432" fill="white"/>
</clipPath>
</defs>
</svg>
