<svg width="159" height="159" viewBox="0 0 159 159" fill="none" xmlns="http://www.w3.org/2000/svg">
<path d="M84.044 97.0273L79.9357 68.6364C79.8544 68.0275 79.8214 67.1405 79.5398 66.5961C78.274 66.5803 78.8539 68.0677 78.7425 69.3945L75.9315 91.7664L70.4142 127.363C70.1501 128.751 69.7133 130.119 69.3337 131.478L66.4603 141.221C65.7473 143.761 65.0518 146.39 64.5612 148.981C64.2738 150.5 64.4412 152.704 63.0133 153.595L62.8991 153.664C62.1869 154.099 61.4337 153.951 60.6326 153.953L56.9801 153.956C48.5419 153.956 42.4013 153.908 34.7713 149.02C32.6498 147.661 32.4099 146.817 32.3972 144.503L32.4196 130.662C32.4464 130.059 32.5567 129.458 32.5919 128.854L32.7547 125.376C32.7995 124.781 32.9133 124.205 32.9368 123.601L33.3178 112.454C33.3639 111.717 33.5104 110.998 33.5456 110.258L33.6441 105.963L35.8139 72.8558L38.3237 42.6198C38.6718 38.3365 38.7597 30.3184 41.9423 27.1339C45.3166 23.7576 44.7863 23.4433 44.7874 18.4917L44.7842 10.2136C44.7828 8.01885 44.1654 5.5765 47.0626 5.05847C48.2503 5.16139 49.4753 5.09976 50.6681 5.13108L58.068 5.38071C58.8027 5.40868 59.5173 5.56209 60.2475 5.59662L71.8114 6.07075C72.2511 6.08789 72.6697 6.22014 73.1025 6.23341L84.5796 6.20942C85.2972 6.19293 86.0032 6.08337 86.7232 6.07527L93.1768 5.96192C95.8913 5.90653 98.6575 5.7227 101.383 5.58344L107.442 5.26151C113.997 4.83457 114.188 4.04989 114.197 11.3892L114.198 15.4615C114.194 18.1249 114.066 21.1406 113.212 23.6657L113.165 23.8026C117.143 27.2536 117.651 30.01 118.632 34.7811L120.027 42.7777L121.557 56.1223L123.721 79.2915L125.362 103.333L125.99 114.677L126.033 117.755C126.055 119.637 126.343 121.166 126.347 123.186L126.367 128.568C126.379 129.367 126.519 130.145 126.543 130.934L126.563 141.363C126.563 142.975 126.657 144.658 126.534 146.263C126.273 149.671 115.858 152.969 113.193 153.516C111.062 153.953 108.753 153.951 106.585 153.955L98.1726 153.953C94.2901 153.951 94.7274 151.409 94.1232 148.514L90.2748 132.274C89.5574 129.507 88.7815 126.808 88.2812 123.986L84.044 97.0273ZM49.6428 9.84653L49.6076 13.2596C49.6124 14.7508 49.9596 14.6085 51.2201 15.3378C54.1835 17.052 56.8595 17.4636 60.089 17.8032C62.2956 18.0353 64.55 18.3317 66.7685 18.4241L85.3327 18.4038C86.1745 18.3623 86.9973 18.2084 87.8337 18.148L93.7473 17.6923L109.44 15.0957L109.389 9.87745L108.853 9.86217L105.901 9.88599C104.705 9.90856 103.591 10.1686 102.398 10.1984L95.1325 10.5826L79.8089 10.8109L77.5846 11.0203C78.1291 11.3155 78.685 12.0013 78.853 12.5894L78.9383 12.9652C79.816 16.5194 74.8557 17.5263 74.1704 14.2049L74.1063 13.8847C73.8253 12.6036 74.7752 11.5986 75.7367 10.9365L49.6428 9.84653ZM49.718 19.3702C49.5619 19.9793 49.6152 20.591 49.5646 21.2119C49.3363 24.0155 48.5244 26.5038 46.7589 28.701C45.9271 29.7364 44.6988 30.8631 44.3129 32.1537C44.2711 32.2936 44.296 32.238 44.2025 32.3599C47.5604 32.3891 51.3336 32.7874 54.3942 31.1106C57.6177 29.4962 59.716 26.6781 60.8393 23.2971L61.0843 22.4915C57.0956 21.8072 53.1669 21.7027 49.718 19.3702ZM109.041 19.836L98.38 21.7726C98.614 23.2072 99.1483 24.8133 99.8054 26.1246L100.149 26.8187C101.274 29.0116 103.157 30.6202 105.412 31.5585C108.873 32.9299 110.505 32.2795 113.614 32.6759C112.936 30.8107 112.015 28.9414 110.368 27.7396C107.826 25.885 107.753 26.7449 108.766 22.7766L109.263 20.3973C109.293 20.2082 109.4 19.8874 109.237 19.7713L109.041 19.836ZM93.594 22.4757C90.8892 22.5646 91.6036 22.3723 91.5963 25.6358L91.561 31.2624C91.5216 32.7524 91.2673 34.2848 91.033 35.7559C89.9771 42.3865 87.5095 48.3871 80.8629 51.2989C80.3891 51.5065 79.9207 51.579 79.4668 51.8414L79.466 62.0988C80.2697 62.6519 82.5763 61.0585 83.8596 63.2738L83.9053 63.3466C84.1957 63.8282 84.6345 69.0833 84.8057 70.0233L86.487 81.2855C86.5707 81.7982 86.5689 82.326 86.6487 82.8382L89.5691 102.403C89.7796 103.607 89.858 104.854 90.0984 106.052L93.2038 125.087L96.2963 137.589L98.2568 147.238C98.9491 149.786 97.8148 149.114 101.636 149.115L107.694 149.115C111.752 149.046 115.23 148.32 118.861 146.51C119.901 145.991 120.893 145.276 121.951 144.825C121.813 143.766 121.836 142.702 121.836 141.636L121.801 120.39L121.155 108.789L118.89 75.6956L117.156 58.2274L115.03 40.725C114.938 40.1678 114.681 37.519 114.421 37.2167C112.256 37.2054 110.226 37.2785 108.088 36.9526C101.597 35.9627 96.4106 31.6682 94.5985 25.2875L94.0998 23.4505C94.0221 23.1374 93.9732 22.7257 93.8175 22.4494L93.594 22.4757ZM65.5882 22.9702C63.1454 33.8417 53.8656 38.289 43.5441 37.1265C43.4407 37.365 43.4604 37.689 43.4438 37.9482L40.67 63.8436L39.4473 77.8695L38.6807 91.7276C38.6415 92.3489 38.5347 92.9616 38.5123 93.5856L38.4678 100.025C38.4532 100.64 38.3456 101.256 38.3116 101.873L38.0464 109.892C38.034 110.522 37.9245 111.142 37.9105 111.772L37.8214 117.931C37.7905 118.808 37.6225 119.675 37.5629 120.552L37.2183 127.555L37.161 144.704C38.3861 146.213 44.5983 148.286 46.4925 148.462L46.6019 148.471C48.125 148.644 49.6434 148.985 51.1765 149.081C54.0402 149.26 56.9553 149.076 59.8272 149.132C61.2649 140.699 64.6363 133.086 66.1602 124.924L70.6179 96.8743L74.2263 68.2166C74.2995 67.3503 74.5231 66.491 74.5807 65.6358C74.7032 63.8171 74.599 61.924 74.5996 60.0989L74.5875 23.134L65.5882 22.9702ZM86.4178 22.9365L79.4767 23.0522L79.4974 47.0239L79.7545 46.8986C88.0629 41.2161 87.1073 32.0091 87.1052 22.9111L86.4178 22.9365Z" fill="white"/>
</svg>
