<svg width="23" height="23" viewBox="0 0 23 23" fill="none" xmlns="http://www.w3.org/2000/svg">
<path d="M21.2626 22.5C18.4029 22.5 15.7125 21.9592 13.1915 20.8775C10.6706 19.7958 8.47075 18.3152 6.59212 16.4357C4.71349 14.5569 3.22862 12.3569 2.13752 9.8357C1.04642 7.3145 0.501231 4.61547 0.501964 1.7386C0.483632 1.4086 0.593623 1.11967 0.831935 0.8718C1.07025 0.623933 1.36355 0.5 1.71186 0.5H6.00147C6.33144 0.5 6.61558 0.623933 6.8539 0.8718C7.09221 1.11967 7.21136 1.4174 7.21136 1.765C7.21136 2.57167 7.26636 3.3325 7.37635 4.0475C7.48634 4.7625 7.66049 5.44083 7.8988 6.0825C7.99046 6.28417 8.00879 6.49023 7.9538 6.7007C7.8988 6.91117 7.78881 7.10843 7.62383 7.2925L4.87407 10.0425C5.66234 11.6558 6.78057 13.1867 8.22877 14.635C9.67698 16.0833 11.2352 17.2383 12.9034 18.1L15.6531 15.35C15.8181 15.185 16.0106 15.075 16.2306 15.02C16.4505 14.965 16.6705 14.9833 16.8905 15.075C17.5688 15.295 18.2701 15.4648 18.9946 15.5843C19.7191 15.7038 20.4659 15.7632 21.2351 15.7625C21.5834 15.7625 21.8815 15.8908 22.1293 16.1475C22.3772 16.4042 22.5007 16.7158 22.5 17.0825V21.29C22.5 21.62 22.3808 21.9042 22.1425 22.1425C21.9042 22.3808 21.6109 22.5 21.2626 22.5ZM14.9382 19.2C15.7631 19.5117 16.6247 19.7592 17.5229 19.9425C18.4212 20.1258 19.3469 20.245 20.3002 20.3V17.935C19.7319 17.8983 19.1497 17.8342 18.5535 17.7425C17.9574 17.6508 17.3664 17.5133 16.7805 17.33L14.9382 19.2ZM20.3002 11.5C20.3002 9.04333 19.4478 6.9625 17.7429 5.2575C16.0381 3.5525 13.9574 2.7 11.501 2.7V0.5C13.0225 0.5 14.4524 0.788933 15.7906 1.3668C17.1288 1.94467 18.2929 2.72823 19.2828 3.7175C20.2727 4.7075 21.0566 5.87167 21.6344 7.21C22.2122 8.54833 22.5007 9.97833 22.5 11.5H20.3002ZM15.9006 11.5C15.9006 10.29 15.4698 9.25417 14.6082 8.3925C13.7466 7.53083 12.7109 7.1 11.501 7.1V4.9C13.3341 4.9 14.8923 5.54167 16.1756 6.825C17.4588 8.10833 18.1004 9.66667 18.1004 11.5H15.9006ZM3.80167 8.0075L5.61651 6.165C5.46985 5.63333 5.34593 5.07417 5.24474 4.4875C5.14355 3.90083 5.07499 3.305 5.03906 2.7H2.72926C2.76593 3.58 2.87592 4.46 3.05924 5.34C3.24255 6.22 3.49003 7.10917 3.80167 8.0075Z" fill="white"/>
</svg>
