<svg width="21" height="20" viewBox="0 0 21 20" fill="none" xmlns="http://www.w3.org/2000/svg">
<path fill-rule="evenodd" clip-rule="evenodd" d="M20.3524 16.6787C19.869 15.3903 19.1278 14.2144 18.1742 13.2229C17.2206 12.2313 16.0747 11.4451 14.8068 10.9125C15.4963 10.3457 16.0531 9.63447 16.4379 8.82884C16.8227 8.02321 17.0261 7.14286 17.0338 6.24996C17.0089 4.68511 16.4054 3.18503 15.3398 2.03949C14.2743 0.893949 12.8224 0.184225 11.2646 0.0474582C10.7544 -0.0158194 10.2384 -0.0158194 9.7283 0.0474582C8.17136 0.185393 6.72063 0.895631 5.65615 2.04105C4.59166 3.18648 3.98885 4.68589 3.96406 6.24996C3.97147 7.14291 4.17478 8.02333 4.5596 8.82899C4.94442 9.63466 5.50138 10.3459 6.19108 10.9125C4.92289 11.4449 3.77673 12.231 2.82291 13.2226C1.86909 14.2141 1.12769 15.3902 0.64418 16.6787C0.507792 17.0554 0.467303 17.4602 0.526399 17.8565C0.585494 18.2529 0.742307 18.6282 0.982659 18.9487C1.23207 19.2779 1.55477 19.5443 1.9251 19.7268C2.29544 19.9093 2.70321 20.0028 3.11599 19.9999H17.8906C18.303 20.0027 18.7104 19.9091 19.0803 19.7266C19.4502 19.5441 19.7725 19.2777 20.0215 18.9487C20.2612 18.6278 20.417 18.2522 20.4748 17.8557C20.5326 17.4593 20.4905 17.0547 20.3524 16.6787ZM6.57827 6.24996C6.59554 5.30216 6.96567 4.39493 7.61624 3.70594C8.2668 3.01694 9.15092 2.59579 10.0955 2.52495C10.3647 2.49161 10.6369 2.49161 10.9061 2.52495C11.6165 2.63395 12.2808 2.94453 12.8202 3.41984C13.3596 3.89514 13.7515 4.51526 13.9495 5.20668C14.1474 5.8981 14.1431 6.63182 13.9371 7.32089C13.7311 8.00996 13.332 8.62547 12.7872 9.09446C12.2423 9.56345 11.5745 9.86624 10.8629 9.96695C10.1513 10.0677 9.42568 9.96207 8.77221 9.66269C8.11874 9.36332 7.56477 8.88272 7.17591 8.27785C6.78705 7.67297 6.57965 6.9692 6.57827 6.24996ZM3.11348 17.4999C3.70541 16.0238 4.72535 14.7588 6.04193 13.8678C7.35851 12.9768 8.91148 12.5007 10.5008 12.5007C12.0902 12.5007 13.6431 12.9768 14.9597 13.8678C16.2763 14.7588 17.2962 16.0238 17.8881 17.4999H3.11599H3.11348Z" fill="white"/>
</svg>
