<svg width="17" height="16" viewBox="0 0 17 16" fill="none" xmlns="http://www.w3.org/2000/svg">
<g clip-path="url(#clip0_62_774)">
<path d="M15.6666 2.00011C15.0282 2.45043 14.3214 2.79485 13.5733 3.02011C13.1718 2.55845 12.6382 2.23124 12.0447 2.08273C11.4511 1.93422 10.8263 1.97158 10.2547 2.18975C9.68308 2.40792 9.19226 2.79638 8.84862 3.30259C8.50498 3.8088 8.3251 4.40834 8.3333 5.02011V5.68678C7.16172 5.71716 6.00082 5.45732 4.95398 4.93041C3.90713 4.4035 3.00685 3.62587 2.3333 2.66678C2.3333 2.66678 -0.333364 8.66678 5.66664 11.3334C4.29365 12.2654 2.65807 12.7327 0.999969 12.6668C6.99997 16.0001 14.3333 12.6668 14.3333 5.00011C14.3327 4.81441 14.3148 4.62917 14.28 4.44678C14.9604 3.77577 15.4405 2.92859 15.6666 2.00011V2.00011Z" stroke="white" stroke-linecap="round" stroke-linejoin="round"/>
</g>
<defs>
<clipPath id="clip0_62_774">
<rect width="16" height="16" fill="white" transform="translate(0.333298)"/>
</clipPath>
</defs>
</svg>
