<svg width="16" height="17" viewBox="0 0 16 17" fill="none" xmlns="http://www.w3.org/2000/svg">
<g clip-path="url(#clip0_152_3010)">
<path d="M10.6667 15.6551V13.0751C10.6917 12.7572 10.6487 12.4376 10.5407 12.1376C10.4326 11.8376 10.262 11.564 10.04 11.3351C12.1333 11.1017 14.3333 10.3084 14.3333 6.6684C14.3332 5.73762 13.9751 4.84253 13.3333 4.1684C13.6372 3.35407 13.6158 2.45397 13.2733 1.65507C13.2733 1.65507 12.4867 1.42174 10.6667 2.64174C9.13868 2.22762 7.528 2.22762 6 2.64174C4.18 1.42174 3.39334 1.65507 3.39334 1.65507C3.05092 2.45397 3.02943 3.35407 3.33334 4.1684C2.68675 4.84754 2.32835 5.75071 2.33334 6.6884C2.33334 10.3017 4.53334 11.0951 6.62667 11.3551C6.40733 11.5817 6.23818 11.852 6.13021 12.1483C6.02224 12.4447 5.97787 12.7604 6 13.0751V15.6551M6 13.6551C2.66667 14.6551 2.66667 11.9884 1.33334 11.6551L6 13.6551Z" stroke="white" stroke-linecap="round" stroke-linejoin="round"/>
</g>
<defs>
<clipPath id="clip0_152_3010">
<rect width="16" height="16" fill="white" transform="translate(0 0.988281)"/>
</clipPath>
</defs>
</svg>
