<svg width="17" height="17" viewBox="0 0 17 17" fill="none" xmlns="http://www.w3.org/2000/svg">
<g clip-path="url(#clip0_152_3012)">
<path d="M15.6666 2.98815C15.0282 3.43847 14.3214 3.78289 13.5733 4.00815C13.1718 3.54649 12.6382 3.21928 12.0447 3.07077C11.4511 2.92226 10.8263 2.95961 10.2547 3.17778C9.68308 3.39596 9.19226 3.78442 8.84862 4.29063C8.50498 4.79684 8.3251 5.39637 8.3333 6.00815V6.67482C7.16172 6.70519 6.00082 6.44536 4.95398 5.91845C3.90713 5.39154 3.00685 4.61391 2.3333 3.65482C2.3333 3.65482 -0.333364 9.65482 5.66664 12.3215C4.29365 13.2535 2.65807 13.7208 0.999969 13.6548C6.99997 16.9881 14.3333 13.6548 14.3333 5.98815C14.3327 5.80245 14.3148 5.61721 14.28 5.43482C14.9604 4.76381 15.4405 3.91662 15.6666 2.98815V2.98815Z" stroke="white" stroke-linecap="round" stroke-linejoin="round"/>
</g>
<defs>
<clipPath id="clip0_152_3012">
<rect width="16" height="16" fill="white" transform="translate(0.333298 0.988281)"/>
</clipPath>
</defs>
</svg>
