<svg width="38" height="30" viewBox="0 0 38 30" fill="none" xmlns="http://www.w3.org/2000/svg">
<path d="M14.4169 26.25C14.9034 26.25 15.2978 25.9352 15.2978 25.5469C15.2978 25.1585 14.9034 24.8438 14.4169 24.8438C13.9303 24.8438 13.5359 25.1585 13.5359 25.5469C13.5359 25.9352 13.9303 26.25 14.4169 26.25Z" fill="white" stroke="white" stroke-width="2" stroke-miterlimit="10" stroke-linecap="round" stroke-linejoin="round"/>
<path d="M26.7506 26.25C27.2372 26.25 27.6316 25.9352 27.6316 25.5469C27.6316 25.1585 27.2372 24.8438 26.7506 24.8438C26.2641 24.8438 25.8696 25.1585 25.8696 25.5469C25.8696 25.9352 26.2641 26.25 26.7506 26.25Z" fill="white" stroke="white" stroke-width="2" stroke-miterlimit="10" stroke-linecap="round" stroke-linejoin="round"/>
<path d="M4.7262 3.75H8.2501L11.774 20.625H29.3935L32.9174 7.96875H10.012" stroke="white" stroke-width="2" stroke-linecap="round" stroke-linejoin="round"/>
</svg>
