<svg width="39" height="30" viewBox="0 0 39 30" fill="none" xmlns="http://www.w3.org/2000/svg">
<path d="M14.8589 26.25C15.3454 26.25 15.7399 25.9352 15.7399 25.5469C15.7399 25.1585 15.3454 24.8438 14.8589 24.8438C14.3723 24.8438 13.9779 25.1585 13.9779 25.5469C13.9779 25.9352 14.3723 26.25 14.8589 26.25Z" fill="white" stroke="white" stroke-width="2" stroke-miterlimit="10" stroke-linecap="round" stroke-linejoin="round"/>
<path d="M27.1926 26.25C27.6792 26.25 28.0736 25.9352 28.0736 25.5469C28.0736 25.1585 27.6792 24.8438 27.1926 24.8438C26.7061 24.8438 26.3116 25.1585 26.3116 25.5469C26.3116 25.9352 26.7061 26.25 27.1926 26.25Z" fill="white" stroke="white" stroke-width="2" stroke-miterlimit="10" stroke-linecap="round" stroke-linejoin="round"/>
<path d="M5.16821 3.75H8.69211L12.216 20.625H29.8355L33.3594 7.96875H10.4541" stroke="white" stroke-width="2" stroke-linecap="round" stroke-linejoin="round"/>
</svg>
