<svg width="197" height="197" viewBox="0 0 197 197" fill="none" xmlns="http://www.w3.org/2000/svg">
<mask id="path-1-outside-1_62_394" maskUnits="userSpaceOnUse" x="14.4167" y="14.4166" width="169" height="89" fill="black">
<rect fill="white" x="14.4167" y="14.4166" width="169" height="89"/>
<path d="M46.351 100.546L20.6681 94.5514C19.9399 94.378 19.2544 94.0586 18.6532 93.6126C18.052 93.1666 17.5476 92.6032 17.1704 91.9566C16.7932 91.3101 16.5512 90.5937 16.4589 89.8509C16.3666 89.108 16.426 88.3542 16.6335 87.6349L30.8582 39.6811C31.2005 38.3629 32.0227 37.2201 33.1637 36.4766L70.6968 17.1797C71.6056 16.6523 72.6435 16.3888 73.6939 16.4189H123.285C124.349 16.4253 125.389 16.7375 126.282 17.3181L163.838 36.6149C164.973 37.3649 165.793 38.5051 166.143 39.8195L180.368 87.7733C180.575 88.4941 180.634 89.2494 180.54 89.9935C180.446 90.7376 180.202 91.4549 179.823 92.1018C179.443 92.7487 178.936 93.3117 178.332 93.7565C177.729 94.2014 177.041 94.5189 176.31 94.6897L150.512 100.684"/>
</mask>
<path d="M20.6681 94.5514L20.2048 96.497L20.2135 96.499L20.6681 94.5514ZM16.6335 87.6349L14.7161 87.0662L14.714 87.0734L14.7119 87.0806L16.6335 87.6349ZM30.8582 39.6811L32.7757 40.2499L32.7854 40.217L32.7941 40.1838L30.8582 39.6811ZM33.1637 36.4766L32.2492 34.6979L32.1579 34.7449L32.0718 34.8009L33.1637 36.4766ZM70.6968 17.1797L71.6112 18.9584L71.6566 18.9351L71.7007 18.9095L70.6968 17.1797ZM73.6939 16.4189L73.6366 18.4181L73.6652 18.4189H73.6939V16.4189ZM123.285 16.4189L123.297 14.4189H123.285V16.4189ZM126.282 17.3181L125.191 18.9944L125.277 19.0503L125.368 19.097L126.282 17.3181ZM163.838 36.6149L164.94 34.9463L164.849 34.886L164.752 34.836L163.838 36.6149ZM166.143 39.8195L164.211 40.3345L164.218 40.3615L164.226 40.3882L166.143 39.8195ZM180.368 87.7733L182.29 87.2207L182.288 87.2126L182.285 87.2045L180.368 87.7733ZM176.31 94.6897L176.763 96.6378L176.766 96.6371L176.31 94.6897ZM46.8056 98.5979L21.1226 92.6037L20.2135 96.499L45.8964 102.493L46.8056 98.5979ZM21.1314 92.6058C20.6664 92.495 20.2287 92.2911 19.8448 92.0063L17.4616 95.2189C18.2801 95.826 19.2133 96.2609 20.2048 96.497L21.1314 92.6058ZM19.8448 92.0063C19.4609 91.7215 19.1388 91.3618 18.898 90.9489L15.4428 92.9644C15.9563 93.8447 16.6431 94.6116 17.4616 95.2189L19.8448 92.0063ZM18.898 90.9489C18.6571 90.536 18.5025 90.0786 18.4436 89.6043L14.4741 90.0974C14.5998 91.1088 14.9293 92.0841 15.4428 92.9644L18.898 90.9489ZM18.4436 89.6043C18.3847 89.13 18.4226 88.6486 18.5551 88.1893L14.7119 87.0806C14.4294 88.0597 14.3485 89.0861 14.4741 90.0974L18.4436 89.6043ZM18.5509 88.2037L32.7757 40.2499L28.9408 39.1124L14.7161 87.0662L18.5509 88.2037ZM32.7941 40.1838C33.011 39.3481 33.5323 38.6236 34.2556 38.1522L32.0718 34.8009C30.5131 35.8167 29.39 37.3778 28.9224 39.1785L32.7941 40.1838ZM34.0782 38.2553L71.6112 18.9584L69.7823 15.401L32.2492 34.6979L34.0782 38.2553ZM71.7007 18.9095C72.2877 18.5688 72.9581 18.3987 73.6366 18.4181L73.7512 14.4198C72.329 14.379 70.9235 14.7357 69.6929 15.4499L71.7007 18.9095ZM73.6939 18.4189H123.285V14.4189H73.6939V18.4189ZM123.272 18.4189C123.954 18.423 124.62 18.6228 125.191 18.9944L127.372 15.6418C126.159 14.8522 124.744 14.4277 123.297 14.419L123.272 18.4189ZM125.368 19.097L162.924 38.3938L164.752 34.836L127.196 15.5392L125.368 19.097ZM162.735 38.2835C163.461 38.7635 163.986 39.4933 164.211 40.3345L168.076 39.3044C167.599 37.5168 166.484 35.9662 164.94 34.9463L162.735 38.2835ZM164.226 40.3882L178.451 88.342L182.285 87.2045L168.061 39.2507L164.226 40.3882ZM178.446 88.3258C178.578 88.7861 178.615 89.2684 178.556 89.7436L182.524 90.2435C182.652 89.2305 182.572 88.2021 182.29 87.2207L178.446 88.3258ZM178.556 89.7436C178.496 90.2187 178.34 90.6767 178.098 91.0898L181.548 93.1138C182.064 92.2331 182.397 91.2565 182.524 90.2435L178.556 89.7436ZM178.098 91.0898C177.855 91.5028 177.532 91.8623 177.146 92.1464L179.519 95.3667C180.341 94.761 181.031 93.9945 181.548 93.1138L178.098 91.0898ZM177.146 92.1464C176.76 92.4304 176.321 92.6332 175.855 92.7422L176.766 96.6371C177.76 96.4046 178.697 95.9724 179.519 95.3667L177.146 92.1464ZM175.858 92.7416L150.06 98.7357L150.965 102.632L176.763 96.6378L175.858 92.7416Z" fill="white" mask="url(#path-1-outside-1_62_394)"/>
<mask id="path-3-outside-2_62_394" maskUnits="userSpaceOnUse" x="44.351" y="81.2773" width="109" height="95" fill="black">
<rect fill="white" x="44.351" y="81.2773" width="109" height="95"/>
<path d="M46.351 83.2773V152.603C46.3432 157.316 48.1401 161.854 51.3729 165.283C54.6056 168.713 59.0287 170.776 63.7342 171.047C74.8323 173.08 86.0883 174.129 97.3711 174.182H99.469C110.756 174.075 122.012 172.972 133.106 170.885C137.807 170.609 142.225 168.544 145.453 165.114C148.68 161.685 150.474 157.151 150.466 152.441V83.2773"/>
</mask>
<path d="M48.351 83.2773C48.351 82.1728 47.4556 81.2773 46.351 81.2773C45.2464 81.2773 44.351 82.1728 44.351 83.2773H48.351ZM46.351 152.603L48.351 152.606V152.603H46.351ZM63.7342 171.047L64.0947 169.079L63.9729 169.057L63.8492 169.05L63.7342 171.047ZM97.3711 174.182L97.3617 176.182H97.3711V174.182ZM99.469 174.182V176.182H99.4785L99.488 176.182L99.469 174.182ZM133.106 170.885L132.988 168.889L132.861 168.896L132.736 168.92L133.106 170.885ZM150.466 152.441H148.466L148.466 152.445L150.466 152.441ZM152.466 83.2773C152.466 82.1728 151.571 81.2773 150.466 81.2773C149.361 81.2773 148.466 82.1728 148.466 83.2773H152.466ZM44.351 83.2773V152.603H48.351V83.2773H44.351ZM44.351 152.6C44.3424 157.824 46.3342 162.853 49.9174 166.655L52.8283 163.912C49.9461 160.854 48.344 156.808 48.351 152.606L44.351 152.6ZM49.9174 166.655C53.5007 170.457 58.4035 172.743 63.6192 173.043L63.8492 169.05C59.654 168.808 55.7105 166.97 52.8283 163.912L49.9174 166.655ZM63.3738 173.014C74.5877 175.068 85.9612 176.129 97.3617 176.182L97.3804 172.182C86.2155 172.13 75.0769 171.091 64.0947 169.079L63.3738 173.014ZM97.3711 176.182H99.469V172.182H97.3711V176.182ZM99.488 176.182C110.893 176.074 122.266 174.959 133.476 172.851L132.736 168.92C121.758 170.984 110.62 172.076 99.45 172.182L99.488 176.182ZM133.223 172.882C138.435 172.575 143.331 170.286 146.909 166.485L143.996 163.744C141.118 166.801 137.18 168.642 132.988 168.889L133.223 172.882ZM146.909 166.485C150.487 162.684 152.475 157.658 152.466 152.438L148.466 152.445C148.473 156.644 146.874 160.686 143.996 163.744L146.909 166.485ZM152.466 152.441V83.2773H148.466V152.441H152.466Z" fill="white" mask="url(#path-3-outside-2_62_394)"/>
<mask id="path-5-outside-3_62_394" maskUnits="userSpaceOnUse" x="74.8871" y="15.4191" width="48" height="26" fill="black">
<rect fill="white" x="74.8871" y="15.4191" width="48" height="26"/>
<path d="M119.942 16.4191C120.036 19.3046 119.549 22.1797 118.51 24.8733C117.471 27.5669 115.901 30.024 113.893 32.0986C111.886 34.1732 109.481 35.8229 106.823 36.9495C104.165 38.0761 101.307 38.6566 98.4202 38.6566C95.5332 38.6566 92.6755 38.0761 90.0174 36.9495C87.3592 35.8229 84.9547 34.1732 82.9469 32.0986C80.9392 30.024 79.369 27.5669 78.33 24.8733C77.2909 22.1797 76.8042 19.3046 76.8986 16.4191"/>
</mask>
<path d="M117.943 16.4845C118.029 19.102 117.587 21.7101 116.644 24.1535L120.376 25.5931C121.512 22.6493 122.044 19.5072 121.941 16.3536L117.943 16.4845ZM116.644 24.1535C115.702 26.5969 114.278 28.8258 112.456 30.7077L115.331 33.4895C117.525 31.2222 119.241 28.5369 120.376 25.5931L116.644 24.1535ZM112.456 30.7077C110.635 32.5896 108.454 34.0861 106.043 35.108L107.603 38.7909C110.509 37.5597 113.136 35.7568 115.331 33.4895L112.456 30.7077ZM106.043 35.108C103.631 36.13 101.039 36.6566 98.4202 36.6566V40.6566C101.575 40.6566 104.698 40.0222 107.603 38.7909L106.043 35.108ZM98.4202 36.6566C95.8013 36.6566 93.2091 36.13 90.7978 35.108L89.2369 38.7909C92.142 40.0222 95.265 40.6566 98.4202 40.6566V36.6566ZM90.7978 35.108C88.3866 34.0861 86.2054 32.5896 84.3841 30.7077L81.5098 33.4895C83.7041 35.7568 86.3318 37.5597 89.2369 38.7909L90.7978 35.108ZM84.3841 30.7077C82.5628 28.8258 81.1385 26.5969 80.196 24.1535L76.464 25.5931C77.5996 28.5369 79.3155 31.2222 81.5098 33.4895L84.3841 30.7077ZM80.196 24.1535C79.2534 21.7101 78.8119 19.102 78.8976 16.4845L74.8997 16.3536C74.7965 19.5072 75.3285 22.6493 76.464 25.5931L80.196 24.1535Z" fill="white" mask="url(#path-5-outside-3_62_394)"/>
</svg>
