<svg width="22" height="18" viewBox="0 0 22 18" fill="none" xmlns="http://www.w3.org/2000/svg">
<path d="M21.67 2.39111C20.9 2.74111 20.07 2.97111 19.21 3.08111C20.09 2.55111 20.77 1.71111 21.09 0.701113C20.26 1.20111 19.34 1.55111 18.37 1.75111C17.58 0.891113 16.47 0.391113 15.21 0.391113C12.86 0.391113 10.94 2.31111 10.94 4.68111C10.94 5.02111 10.98 5.35111 11.05 5.66111C7.49 5.48111 4.32 3.77111 2.21 1.18111C1.84 1.81111 1.63 2.55111 1.63 3.33111C1.63 4.82111 2.38 6.14111 3.54 6.89111C2.83 6.89111 2.17 6.69111 1.59 6.39111V6.42111C1.59 8.50111 3.07 10.2411 5.03 10.6311C4.40073 10.8033 3.7401 10.8273 3.1 10.7011C3.37161 11.5536 3.90354 12.2995 4.62102 12.834C5.3385 13.3686 6.20545 13.6648 7.1 13.6811C5.58363 14.8816 3.704 15.5304 1.77 15.5211C1.43 15.5211 1.09 15.5011 0.75 15.4611C2.65 16.6811 4.91 17.3911 7.33 17.3911C15.21 17.3911 19.54 10.8511 19.54 5.18111C19.54 4.99111 19.54 4.81111 19.53 4.62111C20.37 4.02111 21.09 3.26111 21.67 2.39111Z" fill="white"/>
</svg>
