<svg width="112" height="232" viewBox="0 0 112 232" fill="none" xmlns="http://www.w3.org/2000/svg">
<path d="M45.5769 2.80986C47.8434 2.18951 50.1879 1.92298 52.491 1.44509C59.1987 0.314669 66.1174 1.44049 72.4901 3.65997C74.1785 4.42277 76.4633 4.99717 76.9634 7.06041C77.436 9.65209 76.3945 12.1748 76.0596 14.716C78.9225 15.2306 81.8726 15.6396 84.5428 16.8665C86.3046 17.6293 87.4148 19.2468 88.8096 20.483C92.3378 21.4112 95.9806 23.1252 98.1875 26.1258C98.4673 28.2626 100.247 29.6549 100.89 31.6401C102.009 34.6407 102.574 37.8022 103.354 40.8948C103.858 42.9075 105.469 44.3595 106.308 46.2068C106.827 49.0237 107.272 52.2954 109.685 54.1657C111.199 55.7786 111.231 58.3289 110.653 60.3508C110.217 62.2073 108.327 63.4709 108.451 65.4928C108.299 67.8639 109.983 69.941 109.479 72.3213C109.336 73.1438 109.212 74.0537 108.533 74.6281C107.18 76.002 105.657 77.2381 104.634 78.9062C104.762 79.0762 105.01 79.4208 105.138 79.5954C105.73 85.4819 103.367 91.5016 99.0454 95.504C97.0542 97.5075 95.3108 99.9797 92.5075 100.899C92.6681 101.055 92.9984 101.372 93.159 101.528C93.5307 103.775 93.3471 106.059 92.4983 108.168C92.2965 110.935 91.0073 113.581 91.6633 116.385C91.6587 123.438 90.2319 130.395 89.6676 137.412C89.4015 141.006 88.9564 144.599 88.9794 148.211C88.9794 149.64 89.819 150.899 89.9015 152.323C90.186 155.894 88.6353 159.35 89.0757 162.925C89.6217 168.692 90.3833 174.5 89.9061 180.294C89.2546 184.058 88.8096 187.959 87.1579 191.447C88.0251 192.986 88.961 194.595 89.0803 196.401C89.1583 197.637 89.0206 198.873 88.9243 200.109C90.4246 202.632 92.8195 204.428 94.563 206.767C96.5266 209.125 98.683 211.634 99.0041 214.827C99.4354 217.171 98.3251 219.413 97.1368 221.357C96.4578 222.763 94.7052 222.929 93.3563 223.204C86.6899 224.247 79.9961 221.435 75.0089 217.12C73.4031 215.829 71.9487 214.211 69.9392 213.545C66.6588 212.401 63.1168 212.35 59.8135 211.289C57.5745 210.659 58.1068 207.769 57.3635 206.046C58.1068 202.131 57.5195 198.142 57.2396 194.209C56.4092 189.016 56.8038 183.745 56.923 178.521C57.024 175.612 56.634 172.703 56.8634 169.799C56.946 166.233 57.7902 162.75 57.8682 159.184C58.4417 154.722 58.46 150.214 58.3545 145.725C57.7168 147.733 56.7258 149.7 56.7349 151.855C56.6753 155.82 56.9506 159.8 56.5698 163.756C56.3863 168.829 55.4778 173.847 55.5054 178.925C55.2622 181.089 54.6382 183.199 54.4409 185.367C54.6795 186.893 55.1246 188.396 55.1521 189.953C55.354 192.122 54.8906 194.328 55.4457 196.46C55.9183 198.955 56.5881 201.4 57.2717 203.845C57.8636 205.77 56.5331 207.493 56.0559 209.272C57.2029 212.433 58.6986 215.471 60.5154 218.301C61.7771 220.277 62.8599 222.552 62.5342 224.973C62.3598 227.68 60.1805 230.001 57.57 230.566C53.7252 231.439 49.6786 230.901 45.9394 229.789C42.0625 228.581 38.3508 226.398 35.91 223.085C34.1987 221.031 32.8774 218.545 30.51 217.148C27.6654 215.103 23.7794 214.06 22.1461 210.696C21.9992 208.702 22.2057 206.675 21.9167 204.676C22.0084 200.587 20.0264 196.253 21.9625 192.352C23.9124 188.161 24.3529 183.506 24.8346 178.966C25.2521 175.111 26.1238 171.325 26.6882 167.492C27.0139 165.346 27.7159 163.251 27.6654 161.064C27.6425 155.825 26.8671 150.582 27.3718 145.348C27.4268 143.662 27.3901 141.934 28.138 140.376C27.3488 133.975 26.4909 127.542 26.6239 121.072C26.4037 118.122 27.0965 115.217 26.9176 112.276C27.3167 108.655 27.9728 104.782 26.4679 101.321C24.8209 99.102 22.4213 97.5994 20.242 95.9589C15.0943 92.4528 11.0752 87.5773 7.56541 82.4904C5.61093 79.7379 3.14717 77.3024 1.78913 74.1639C0.981641 72.2753 0.917409 70.1937 1.05964 68.1764C1.81666 64.4175 3.23435 60.8333 5.0466 57.4604C6.74875 54.4092 6.79004 50.7101 8.69406 47.7462C10.176 45.4716 11.0661 42.8615 12.6535 40.6558C13.3463 39.5346 14.3969 38.6156 14.8144 37.3473C15.5531 34.4569 16.5304 31.6125 17.893 28.9519C19.3107 26.1902 21.8983 24.3613 23.8574 22.0315C28.8858 19.3479 34.3639 17.6247 39.741 15.7959C40.8972 15.3731 42.0901 14.9641 43.0535 14.1692C43.9436 13.4983 44.0308 12.2989 44.3107 11.3018C44.8979 8.50329 45.7146 5.70023 45.5769 2.80986ZM52.0368 3.82999C51.2982 4.0138 50.532 4.07813 49.7841 3.90811C49.1831 3.68294 48.3206 4.05056 48.5133 4.79498C48.7656 7.70373 51.3808 9.61533 53.6289 11.0904C57.7305 13.7786 62.9058 14.2151 67.6085 13.1628C69.4253 12.6527 71.6 12.0738 72.6507 10.3873C71.4303 7.19826 68.0214 5.8197 65.2273 4.33086C67.4066 4.49629 69.3152 5.73699 71.1045 6.89038C72.5176 7.76347 73.1095 9.43152 73.0177 11.0352C71.3752 12.7952 69.1959 13.9026 66.9845 14.7757C66.9157 14.9136 66.7826 15.1847 66.7138 15.3226L66.7597 15.7591L67.0166 16.1773C67.1359 19.1228 66.8148 22.0683 66.4202 24.9816C69.3428 23.7363 72.0313 21.8891 74.3437 19.7156C75.1741 19.1412 74.9539 18.0659 74.4538 17.3444C73.7564 17.9142 73.5775 18.87 72.981 19.5226C73.3114 17.2158 73.7564 14.9182 73.8206 12.5746C73.917 10.7182 75.3438 8.57682 73.7472 6.9731C71.5083 4.93283 68.4251 4.0046 65.4567 3.72889C60.9926 3.33371 56.4964 3.45778 52.0368 3.82999ZM45.2053 15.8878C45.6733 16.7379 46.1459 17.611 46.8616 18.2819C49.5318 20.7724 52.5645 22.8587 55.7944 24.5497C51.2202 22.9781 47.0084 20.1475 43.9069 16.4254C37.7223 19.2239 30.8495 20.4875 25.0732 24.1729C23.2839 26.8013 21.2514 29.2781 19.7649 32.0996C17.9205 35.2427 16.7689 38.7672 14.6401 41.7449C11.5203 46.1884 10.5109 51.6199 8.84546 56.6884C8.03798 59.1606 6.20737 61.1412 5.43658 63.6272C4.77132 65.7042 4.49146 67.8823 4.29417 70.0512C4.05101 72.574 5.39529 74.8578 6.65699 76.9302C8.96934 80.3904 11.6533 83.5795 14.1997 86.8696C15.7963 88.9421 17.9847 90.4263 19.9163 92.1587C22.0451 94.0473 24.5731 95.3937 26.8075 97.1353C27.982 98.1095 29.2804 99.2031 29.5603 100.788C30.0512 102.176 30.0649 104.079 31.6111 104.759C32.7994 105.319 34.1024 105.871 35.4421 105.756C35.754 105.319 36.0431 104.869 36.3138 104.409C35.7265 103.688 34.8961 103.256 34.1895 102.677C33.6573 102.066 33.5747 101.216 33.3224 100.476C34.0473 100.614 34.7676 100.752 35.4879 100.894C35.4421 101.055 35.3457 101.377 35.2952 101.533C34.7952 101.395 34.2951 101.257 33.7996 101.124C33.7674 102.769 35.4099 103.385 36.6349 103.978C37.0937 102.636 37.3736 101.243 37.6443 99.8602C38.36 96.2438 40.053 92.9031 40.7687 89.2913C40.4522 88.6801 39.8419 88.3079 39.3602 87.8484C36.612 85.6014 34.9603 82.0906 31.634 80.5513C28.8124 80.009 25.9174 79.8712 23.1325 79.1267C20.9027 78.4834 18.2876 78.3134 16.6313 76.4845C18.7739 77.6241 21.2193 77.8217 23.5683 78.2445C25.8853 78.6488 28.2114 79.0992 30.5742 79.1451C29.5924 77.5414 28.0003 76.434 26.4037 75.5103C25.0915 75.106 24.9677 73.5941 24.4722 72.5143C22.1644 73.2265 19.7144 73.9847 17.2965 73.3782C13.9565 72.597 10.6256 71.8112 7.26719 71.1127C7.27178 71.0208 7.28096 70.8462 7.28554 70.7589C10.7311 71.2644 14.2272 71.5906 17.6131 72.4453C19.251 72.2983 21.022 71.7009 22.5865 72.4821C22.9535 72.3075 23.3114 72.1283 23.6739 71.9445L21.3202 71.0806C22.6966 70.8646 24.1143 70.644 25.1191 71.7974C24.83 71.3747 24.5456 70.9519 24.2611 70.5291C24.3666 69.7618 24.5869 68.9806 24.4446 68.204C23.5133 67.4917 22.3709 67.1609 21.3019 66.7197C21.5771 66.6324 22.1277 66.4578 22.403 66.3751C20.7559 64.5186 18.2876 63.6593 16.6909 61.734C20.2375 62.1475 22.6874 64.9552 25.6146 66.683C26.8442 64.7898 26.6102 62.4922 27.1149 60.383C27.3167 57.6075 26.367 54.9147 26.234 52.1576C25.9633 47.5532 25.6008 42.935 25.7889 38.3261C25.977 38.758 26.1743 39.1946 26.211 39.677C27.0185 45.7932 27.124 51.983 27.9682 58.0992C28.372 56.7987 28.9684 55.5764 29.6015 54.3771C30.8816 51.9738 30.2485 49.0604 31.4551 46.6296C32.7122 47.9714 32.0653 50.0392 32.2305 51.7073C32.4278 53.4304 31.0835 54.6482 30.175 55.9256C29.1382 57.1709 28.4683 58.7011 28.2986 60.3186C30.1934 60.1394 30.487 57.9751 31.3266 56.6471C33.7812 54.7263 35.4834 52.0151 36.7496 49.1983C36.9653 48.702 37.236 48.2103 37.6948 47.8932C37.5479 50.1357 36.8506 52.3184 35.6944 54.2392C35.9284 54.2392 36.4055 54.2392 36.6395 54.2438C36.8965 54.7493 37.1442 55.2639 37.4608 55.7418C40.3971 59.8821 43.2738 64.0775 45.7788 68.4935C46.6459 69.9823 47.3204 71.5769 47.7884 73.2357C45.0814 68.6038 41.879 64.2843 38.8234 59.8821C37.5617 57.9889 35.91 56.376 34.8364 54.3587C33.9188 55.1536 33.1068 56.0681 32.492 57.1204C34.0611 58.6092 34.7355 60.7046 35.6806 62.5933C37.9884 67.648 40.6173 72.551 43.3105 77.4081C38.5206 71.6228 35.9146 64.4681 32.0561 58.0946C31.2853 59.3215 30.3723 60.4749 29.7484 61.7937C29.5603 63.4158 30.1154 65.0287 30.3494 66.6324C30.8128 68.6635 30.9321 70.8554 32.0836 72.6521C31.4413 73.5758 31.9506 75.23 30.6476 75.5471C34.8915 79.0624 38.4197 83.3543 42.347 87.1959C42.5167 90.7434 40.5439 93.8819 39.5942 97.1996C38.282 100.678 38.3279 104.524 36.69 107.893C37.5847 108.632 38.7225 108.825 39.8465 108.931C43.4986 101.868 44.0813 93.7946 46.4165 86.2906C46.7239 86.4515 47.3479 86.7823 47.6599 86.9432C46.9396 90.5734 45.7513 94.0795 44.9851 97.6959C44.251 100.981 43.2738 104.207 42.2736 107.419C41.9524 108.462 41.59 109.602 40.6173 110.218C39.1629 110.498 37.8324 109.653 36.4698 109.308C35.6256 109.064 34.6621 109.423 33.8913 108.922C32.4828 108.063 31.3771 106.808 30.3769 105.517C30.0328 107.962 29.2207 110.369 29.4456 112.869C30.2989 112.952 31.1523 113.035 32.0057 113.099C32.2442 112.382 32.469 111.665 32.6984 110.948C33.7399 113.581 36.1486 115.498 38.8464 116.228C47.224 118.719 56.1247 117.91 64.5804 116.283C65.7045 106.895 65.6999 97.411 65.6173 87.9633C65.7182 78.7775 65.8146 69.5825 65.5806 60.3968C65.521 55.7786 64.6492 51.2294 64.2547 46.6388C63.7133 40.6604 62.993 34.7005 62.6993 28.7037C62.5938 27.4952 62.3828 26.2545 62.9241 25.1103C62.4011 22.3945 62.4286 19.6191 62.6902 16.8711C63.6858 16.793 64.6813 16.6873 65.6769 16.6184C65.6265 16.9952 65.5255 17.7442 65.4751 18.121C65.1998 17.9326 64.6446 17.565 64.3694 17.3766C63.4747 17.1193 63.3921 18.1302 63.3417 18.746C63.8005 18.723 64.7089 18.677 65.1631 18.6541C65.2273 20.3681 65.2273 22.1142 65.6861 23.7777C65.7458 21.6363 65.6907 19.4904 65.8559 17.3536C65.9293 16.6873 66.1633 16.0026 65.8742 15.3547L65.7687 15.1158C59.8318 15.6166 53.716 13.4247 49.362 9.358C48.4169 8.54006 47.9535 7.36369 47.5911 6.2011C46.7973 9.43152 46.9304 12.9285 45.2053 15.8878ZM73.2013 22.2015C71.0265 23.7731 68.728 25.3079 66.0807 25.9282C66.1908 28.8738 66.6037 31.7963 66.9708 34.7188C68.1453 44.6169 68.5628 54.5838 69.2143 64.5232C69.7281 81.6725 69.1822 98.8263 68.9849 115.976C75.0319 114.464 81.1522 113.232 87.3552 112.598C88.2269 112.529 89.0849 112.345 89.9199 112.088C89.8419 108.614 90.2824 105.177 90.7136 101.735C90.1309 97.4523 90.0254 93.1099 89.1996 88.8594C88.649 86.1344 88.6766 83.3451 88.4059 80.588C87.9149 76.4707 88.1535 72.2983 88.7362 68.204C89.3005 65.1022 90.6035 62.1889 91.0761 59.0642C91.4477 56.6241 91.8239 54.1795 92.0304 51.7164C92.2965 52.2587 92.8379 52.7596 92.636 53.435C92.5167 56.0589 92.4984 58.6965 92.2185 61.3112C91.567 63.4066 91.122 65.5526 90.7412 67.7123C94.8382 64.3946 98.3526 60.4381 102.083 56.7252C103.014 55.8981 103.432 54.6941 103.89 53.5683C103.427 57.5891 99.8804 60.1946 97.279 62.9471C95.3796 65.1114 92.7369 66.5405 91.1541 68.999C92.3102 68.8105 93.4435 68.5119 94.5951 68.3051C94.7878 68.5808 94.9713 68.8611 95.1594 69.146C97.4075 67.5423 99.8391 66.1913 101.922 64.3578C103.684 62.9379 104.996 60.6495 107.515 60.5438C108.244 58.5862 107.295 56.5552 106.918 54.6206C106.551 53.2375 104.436 53.7567 104.078 52.3873C102.753 48.8536 101.661 45.2372 100.202 41.7541C99.3023 39.6679 99.2565 37.3611 98.7197 35.183C98.3664 33.5471 97.1689 32.3156 96.2192 31.0105C96.3706 33.5379 97.2148 36.5615 95.5815 38.781C94.985 43.2797 93.3655 47.5854 92.8975 52.0887C92.7002 51.7394 92.5121 51.3902 92.324 51.041C93.76 47.4521 93.6866 43.5278 94.6088 39.8149C95.0493 36.8878 95.9118 33.9974 96.0311 31.0381C95.2695 29.825 94.329 28.7175 93.76 27.3895C93.2187 26.3096 92.8746 25.0046 91.7689 24.3521C88.337 22.2475 84.8135 20.028 80.7714 19.3663C79.2528 19.0171 77.4314 19.0722 76.3715 17.7396C76.0963 19.665 74.6969 21.0987 73.2013 22.2015ZM63.4885 19.7799C63.3967 21.6731 63.5298 23.5755 63.2682 25.4549C63.7683 25.4136 64.7731 25.3355 65.2732 25.2941C64.5804 23.6077 64.5254 21.7926 64.3189 20.0096C64.1079 19.9499 63.6949 19.835 63.4885 19.7799ZM63.4105 25.8272C64.0436 36.6167 65.5898 47.328 66.3881 58.1038C66.7597 66.0626 66.6358 74.0353 66.6404 81.9987C66.3422 90.1138 66.6588 98.2381 66.4385 106.353C66.4064 109.74 65.9843 113.113 66.044 116.504C66.3973 116.394 67.1038 116.182 67.4571 116.072C67.3791 114.877 67.402 113.683 67.425 112.483C67.5947 112.506 67.9251 112.548 68.0948 112.571C67.6819 109.303 67.8608 105.995 67.8012 102.709L68.081 102.728C68.159 104.671 67.6957 106.73 68.4252 108.582C68.627 98.5184 68.4022 88.4504 68.5857 78.3915C68.3747 78.4283 67.948 78.5064 67.737 78.5477C67.7415 78.4742 67.7507 78.3272 67.7599 78.2537L68.4252 78.1801C68.5077 77.955 68.6729 77.5 68.7555 77.2703C68.416 77.2749 67.7324 77.2795 67.3929 77.2841C67.7002 77.2243 68.3105 77.0957 68.6178 77.0359L68.6454 76.1904C68.2875 76.241 67.5672 76.3421 67.2047 76.3926C67.8562 76.2547 68.3884 75.9377 68.8014 75.4368C68.4481 75.4046 67.7461 75.3403 67.3929 75.3035L68.4802 75.2668L68.6041 74.265C68.237 74.2788 67.5121 74.311 67.1451 74.3248C67.6177 74.2099 68.0948 74.1088 68.572 74.0077C68.5031 72.7624 68.4986 71.5171 68.5628 70.2764C68.2737 70.2856 67.6911 70.3086 67.402 70.3224C67.6773 70.2764 68.2279 70.1799 68.5031 70.134C68.4848 69.1 68.4848 68.0569 68.5031 67.023C68.0076 67.0138 67.5121 67.0598 67.0166 67.0598C67.2644 66.8622 67.7599 66.4624 68.0031 66.2602C67.9113 65.7731 67.2552 65.5204 67.2873 64.923C67.7232 64.6473 68.1407 64.344 68.5307 64.0086C68.3563 63.8431 67.9985 63.5169 67.8241 63.3515L68.2783 63.2871C67.2873 54.2484 67.113 45.1315 65.966 36.1066C65.5026 32.6786 65.3007 29.223 65.0209 25.7766C64.6171 25.7904 63.8142 25.8134 63.4105 25.8272ZM102.551 64.5554C98.8481 68.0431 94.3427 70.4924 90.2778 73.5022C90.2686 74.0628 90.2548 75.1887 90.2502 75.7493C92.9801 73.176 96.834 72.4499 100.124 70.8416C102.041 69.8307 104.193 69.486 106.331 69.3114C106.533 66.6554 106.588 63.9948 106.863 61.348C104.913 61.4996 103.872 63.3607 102.551 64.5554ZM67.8562 65.1757C67.9893 65.309 67.9893 65.309 67.8562 65.1757ZM26.734 70.7681C27.1653 71.9812 27.8489 73.0841 28.4041 74.2421C29.363 71.7285 28.0692 69.1506 27.3488 66.7565C27.0644 68.0707 26.523 69.4033 26.734 70.7681ZM90.6586 68.6175C90.6999 69.872 89.741 71.5722 90.9981 72.4775C92.0992 71.269 93.5261 70.4281 94.93 69.6239C94.7419 69.3022 94.5538 68.9806 94.3748 68.6543C93.3517 68.8519 92.3745 69.1919 91.5165 69.7801C91.3009 69.4906 90.8742 68.9116 90.6586 68.6175ZM98.2471 72.5418C95.5356 73.5206 92.8929 74.7383 90.576 76.4799C90.3053 78.0147 89.4749 79.4576 89.7593 81.0613C90.9751 80.9327 92.1726 80.6845 93.393 80.5742C95.6319 80.5283 97.5727 81.7736 99.4859 82.7753C99.8345 83.4278 100.192 84.0758 100.55 84.7283C98.0865 83.0327 95.0584 80.4226 91.9157 81.9712C90.186 82.5226 90.3787 84.5766 90.4567 86.0287C91.4661 86.0793 92.7599 85.5003 93.5215 86.4469C95.6641 88.6709 96.6138 91.7176 97.2515 94.6723C99.1922 93.3443 101.229 91.7222 101.807 89.3189C102.399 85.5876 102.61 81.8011 102.748 78.0285C102.817 76.82 103.684 75.8871 104.271 74.89C104.895 74.0215 105.276 72.8313 106.4 72.4821C107.01 71.6596 107.143 70.0512 105.817 69.9226C103.106 70.1202 100.665 71.416 98.2471 72.5418ZM28.1609 74.821C27.6792 75.4736 28.8216 76.2915 29.3859 75.8458C29.7025 75.2208 28.7161 74.4764 28.1609 74.821ZM90.7641 86.9156C91.3559 91.2442 91.9753 95.5913 91.8927 99.9751C93.2049 98.399 95.2007 97.0939 95.3796 94.8607C95.8063 91.8462 94.407 88.9191 92.4617 86.7042C92.0396 86.7593 91.1862 86.865 90.7641 86.9156ZM80.9228 115.507C76.8625 116.334 72.8572 117.699 68.6775 117.703C68.338 119.909 68.6224 122.184 67.9801 124.343C67.5213 126.292 66.5899 128.093 65.3695 129.669C64.6768 129.357 63.9886 129.04 63.2958 128.727C64.9245 125.488 64.897 121.724 64.7318 118.181C56.6386 119.684 48.1554 120.3 40.1264 118.117C37.7957 117.547 35.7862 116.141 33.4417 115.626C34.3776 120.001 33.7904 124.527 33.8454 128.971C33.0471 124.513 33.3912 119.932 32.4828 115.498C31.4826 115.42 30.4779 115.369 29.4777 115.351C29.9089 120.644 29.6199 125.965 30.0053 131.255C30.9321 136.41 31.7763 141.585 32.258 146.805C33.1389 151.166 33.5289 155.6 34.4327 159.956C34.2079 160.305 33.9831 160.659 33.7583 161.013C33.4509 156.753 31.6753 152.82 30.7485 148.693C30.198 147.269 30.331 145.573 29.4134 144.314C29.2942 147.448 29.4593 150.586 29.6383 153.716C29.6061 155.324 29.4501 156.937 29.6337 158.545C29.9548 161.698 29.3676 164.832 29.2345 167.979C28.8262 171.766 29.3079 175.612 28.528 179.366C27.9315 183.681 25.8669 187.578 24.7796 191.764C24.3116 194.677 24.9356 197.627 24.8897 200.564C24.8025 203.188 25.3485 205.793 25.1007 208.417C28.9042 211.482 33.9739 212.897 38.828 212.576C42.4755 212.217 46.2009 211.675 49.5043 209.979C50.9816 209.184 52.8351 208.826 53.8812 207.411C54.7346 205.995 54.0923 204.3 53.8078 202.815C52.9498 199.364 53.6059 195.794 53.2572 192.302C52.9682 189.411 53.0645 186.498 53.193 183.603C53.4591 181.301 53.9179 178.994 53.5967 176.673C52.8627 171.196 52.9177 165.627 53.6059 160.144C53.8078 157.98 54.3079 155.834 54.2115 153.647C53.2159 156.376 52.6883 159.253 51.6514 161.969C50.2016 165.562 48.6371 169.105 46.7331 172.483C46.9166 171.545 47.2103 170.64 47.5681 169.762C48.8986 166.486 49.8942 163.081 51.2248 159.804C52.9361 155.6 53.9546 151.165 55.2805 146.837C56.6111 141.805 58.6298 136.994 60.8091 132.279C60.3686 131.939 59.9144 131.618 59.4969 131.25C59.7355 130.772 59.9786 130.299 60.2356 129.83C61.2174 130.037 62.1671 130.372 63.149 130.584C64.5345 130.841 65.9843 130.184 67.3194 130.772C66.0899 131.296 64.7639 131.448 63.4472 131.581C62.9608 133.23 61.5202 134.467 61.5065 136.277C61.1119 140.767 62.6764 145.123 63.2407 149.539C63.5114 153.045 63.5894 156.602 63.0159 160.085C62.4516 156.119 62.5296 152.075 61.6533 148.156C61.1853 145.794 60.2402 143.574 59.4694 141.309C59.0748 142.481 58.5977 143.634 58.4646 144.879C58.7399 144.287 59.0519 143.717 59.373 143.151C59.997 144.755 60.6301 146.409 60.6669 148.16C60.7861 153.684 60.2631 159.23 60.8871 164.735C61.0431 170.497 64.7272 175.929 63.4196 181.756C62.8829 178.121 61.9194 174.587 60.8779 171.072C60.4971 170.093 60.8687 168.857 60.075 168.057C60.0566 168.696 60.0337 169.367 60.2769 169.983C60.777 171.412 60.3916 172.956 60.3227 174.431C60.1117 178.263 59.1391 182.031 59.2859 185.887C59.1803 190.941 59.786 195.973 59.7997 201.028C59.8089 202.011 59.8502 203.16 60.7036 203.817C62.6076 205.471 65.3191 205.43 67.6911 205.38C71.7514 205.145 75.9953 204.952 79.6749 203.022C82.1662 201.726 84.7171 200.412 86.7083 198.39C86.667 196.185 86.6762 193.979 86.6532 191.773C85.3181 193.17 84.9419 195.298 83.46 196.506C84.24 192.435 85.8045 188.557 86.433 184.458C87.9884 177.652 87.7406 170.626 87.5112 163.701C86.3321 168.411 86.3091 173.356 85.1254 178.08C82.9599 186.337 80.2484 194.572 75.7292 201.864C77.8214 195.665 81.2073 189.953 82.8177 183.585C84.2491 178.181 84.9878 172.588 85.0153 166.996C85.2769 163.936 85.3594 160.861 85.754 157.815C86.0109 155.264 86.8322 152.811 87.0891 150.26C87.5846 144.99 87.9654 139.705 88.1535 134.416C88.5664 127.404 89.4611 120.396 89.0436 113.365C86.3734 114.22 83.6343 114.822 80.9228 115.507ZM65.81 118.053C65.9018 118.494 65.9981 118.935 66.0944 119.381C65.8054 119.891 65.5255 120.405 65.2503 120.925C65.3145 122.593 65.1814 124.297 64.6263 125.883C64.273 126.875 63.961 127.946 64.2638 128.989C65.4475 128.378 66.044 127.151 66.5395 125.988C67.6177 123.346 67.6957 120.437 67.5855 117.63C66.9937 117.768 66.4018 117.91 65.81 118.053ZM78.7527 205.324C73.1462 207.383 66.8744 207.861 61.0798 206.317C61.0477 207.048 61.0247 207.783 60.9972 208.518C65.2181 209.667 69.6777 210.108 73.6096 212.134C76.9496 213.692 79.4914 216.573 82.9416 217.929C86.0385 219.229 89.7043 219.294 92.7553 217.814C93.9619 217.194 95.3062 216.527 95.9806 215.296C95.9072 212.833 94.1454 210.898 92.7645 209.014C90.7687 206.248 87.8553 204.226 86.2312 201.18C83.8454 202.737 81.3908 204.231 78.7527 205.324ZM25.5091 210.59C26.9222 212.792 29.4868 213.508 31.7625 214.437C35.2907 216.822 37.7406 220.548 41.4523 222.722C46.623 225.86 53.0278 226.862 58.9418 225.704C60.3549 225.506 60.2723 223.627 59.9695 222.588C58.9922 220.015 57.3681 217.764 56.1614 215.305C55.2622 213.674 54.7483 211.84 53.638 210.333C47.5819 213.665 40.5301 214.432 33.7353 214.267C32.2763 214.216 30.9045 213.642 29.5419 213.182C27.9545 212.741 26.89 211.404 25.5091 210.59ZM78.7435 217.148C82.5653 220.714 88.3646 221.973 93.3563 220.599C95.141 220.204 96.366 218.706 96.623 216.932C94.563 218.448 92.1726 219.501 89.6859 220.084C85.7907 220.833 81.9597 219.229 78.7435 217.148ZM36.089 220.3C40.7091 226.724 49.1464 229.095 56.7349 228.447C57.6984 228.337 58.5747 227.887 59.4235 227.446C56.8634 227.74 54.2574 228.36 51.6881 227.781C47.8526 227.152 44.0033 226.085 40.7228 223.921C39.0528 222.883 37.6856 221.444 36.089 220.3Z" stroke="white"/>
<path d="M25.1048 24.568C27.0318 24.4577 28.4816 25.9603 29.679 27.2699C33.2668 31.6675 34.7442 37.3839 35.414 42.9211C35.3085 44.603 35.9967 46.6846 34.8818 48.1091C34.4781 45.7012 34.5148 43.229 33.8541 40.8625C32.831 37.1312 32.4502 33.138 30.358 29.7973C29.1285 27.587 26.9905 26.1579 25.1048 24.568Z" stroke="white"/>
<path d="M89.2501 29.6101C89.4152 28.8151 89.2776 27.8639 89.9291 27.2665C90.1814 30.9978 89.6768 34.7199 89.374 38.4328C89.2868 39.4851 88.9977 40.5696 89.3464 41.6081C89.3189 43.1475 88.4747 44.7604 89.2501 46.2263C89.7548 47.0856 89.3831 48.046 89.296 48.9604C88.594 48.5606 88.2407 47.8346 87.837 47.1775C87.3873 47.4762 86.9561 47.8024 86.5432 48.1517C86.0477 47.8943 85.5567 47.637 85.0475 47.4118C84.997 48.1057 84.5749 48.4503 83.928 48.5193C83.538 46.888 83.171 44.981 84.4419 43.6208C85.1943 42.6788 86.3872 43.5565 87.3002 43.7449C87.8186 42.9591 87.9379 41.9987 88.0388 41.0843C88.3784 37.2519 88.9014 33.4379 89.2501 29.6101ZM85.3824 44.9948C85.3411 45.2337 85.2585 45.7116 85.2172 45.9506C85.7586 46.0103 86.3046 46.07 86.8506 46.1252C86.7863 45.8633 86.6579 45.344 86.5936 45.0867C86.1853 45.0545 85.7861 45.0269 85.3824 44.9948Z" stroke="white"/>
<path d="M76.2059 43.1741C77.7337 42.9351 79.2707 43.1235 80.8031 43.22C81.0004 44.0701 81.1701 44.9248 81.3124 45.7887C81.4133 44.9983 81.4913 44.208 81.6244 43.4222C81.7299 42.5767 82.9503 42.9167 83.5192 42.8018C83.6201 44.7732 82.519 46.501 81.9914 48.3345C81.8079 48.169 81.4363 47.8336 81.2527 47.6681C81.0922 47.8336 80.7618 48.1598 80.6012 48.3253C79.0688 48.4309 80.3673 46.4596 79.3212 45.876C79.0689 45.9587 78.5688 46.1196 78.3164 46.2023C78.087 47.0478 78.9725 47.3097 79.4864 47.7417C78.6926 48.532 77.5273 48.3482 76.5087 48.4539C76.4445 46.694 76.8666 44.8651 76.2059 43.1741ZM77.7016 44.8007C77.8943 45.4854 79.234 45.6187 79.3487 44.8191C79.1331 44.1896 77.8576 44.0977 77.7016 44.8007Z" stroke="white"/>
<path d="M11.3008 52.3228C12.2688 55.4108 12.3835 58.7056 12.5166 61.9176C10.7089 59.0824 10.7961 55.5257 11.3008 52.3228Z" stroke="white"/>
<path d="M13.0573 67.0232C15.6724 66.6464 17.9664 68.3558 20.3889 69.0635C19.5585 69.2197 18.7739 69.523 18.0674 69.9963L20.6458 70.5983C17.7737 71.1957 15.1035 69.9687 12.415 69.2059C12.4379 69.0175 12.4838 68.6361 12.5067 68.4477C14.2547 68.6637 15.8881 69.353 17.5443 69.9136C17.893 69.6655 18.2371 69.4173 18.5858 69.1692C16.6864 68.751 14.4062 68.5994 13.0573 67.0232Z" stroke="white"/>
<path d="M8.95104 77.5414C11.1579 79.4254 12.9839 81.7138 15.2412 83.5473C16.8837 84.8339 17.6407 86.9018 19.2144 88.239C23.6326 91.1615 28.0967 94.0381 32.3269 97.2363C32.804 97.5121 33.0426 97.9991 33.2078 98.5046C31.8038 97.8797 30.6201 96.8871 29.3722 96.0094C26.0459 93.6475 22.3617 91.8002 19.2511 89.1488C17.6269 87.807 17.0076 85.6611 15.4293 84.2733C13.1445 82.1549 10.9147 79.963 8.95104 77.5414Z" stroke="white"/>
<path d="M84.6021 84.3064C85.7078 85.7585 85.6894 87.6609 85.8638 89.3979C86.217 94.9856 86.2996 100.601 86.0106 106.189L85.3453 106.616C85.3958 99.1672 85.0746 91.7322 84.6021 84.3064Z" stroke="white"/>
<path d="M67.7962 85.3399C68.099 85.5834 68.099 85.5834 67.7962 85.3399Z" stroke="white"/>
<path d="M67.8141 88.459C68.0252 88.799 68.0252 88.799 67.8141 88.459Z" stroke="white"/>
<path d="M67.8242 91.7547C68.0673 92.0304 68.0673 92.0304 67.8242 91.7547Z" stroke="white"/>
<path d="M67.7919 97.7001C68.0259 98.008 68.0259 98.008 67.7919 97.7001Z" stroke="white"/>
<path d="M67.6866 99.6213C69.2235 99.5202 67.0855 101.023 67.6866 99.6213Z" stroke="white"/>
<path d="M42.5441 108.674C45.2281 106.238 46.9807 103.035 49.3573 100.343C47.5312 103.449 45.9576 107.001 42.5441 108.674Z" stroke="white"/>
<path d="M67.7135 100.963C68.1999 101.238 68.2733 101.68 67.9292 102.295L67.6952 102.263C67.6998 101.937 67.7089 101.289 67.7135 100.963Z" stroke="white"/>
<path d="M50.6787 108.601C52.4818 107.517 54.0004 106.037 55.7806 104.916C54.7712 106.515 53.2664 107.664 51.7982 108.803C51.5275 108.84 50.9861 108.923 50.7154 108.96C51.0182 109.07 51.6239 109.29 51.9267 109.401C50.1465 110.402 48.8481 112.057 47.0542 113.04C47.9351 111.34 49.0362 109.653 50.6787 108.601Z" stroke="white"/>
<path d="M51.5315 111.399C53.0868 110.154 54.1742 108.468 55.2111 106.79C54.5458 109.525 51.871 111.087 50.1138 113.104C48.7466 114.731 46.8105 115.788 44.6816 115.949C46.604 113.904 49.4715 113.265 51.5315 111.399Z" stroke="white"/>
<path d="M30.1244 153.652C30.8126 153.886 31.4779 154.176 32.134 154.488C31.0833 155.522 32.1248 156.726 32.4046 157.852C33.3131 160.448 33.492 163.26 34.6206 165.788C34.5748 164.405 34.2949 163.044 34.0242 161.698C34.2215 161.317 34.4234 160.944 34.6298 160.577C35.0198 165.485 35.5291 170.383 36.0475 175.281C36.5522 179.587 35.5199 183.879 35.8502 188.189C35.0014 181.774 35.029 175.268 33.9095 168.885C32.5606 163.839 30.7759 158.849 30.1244 153.652Z" stroke="white"/>
<path d="M52.3258 179.381C52.4221 179.027 52.5552 178.687 52.7341 178.365C52.7938 180.516 53.0002 182.823 51.9633 184.794C51.2568 186.214 50.4493 187.574 49.7061 188.971C46.9716 194.154 42.4754 198.143 39.7547 203.331C39.2408 203.96 38.7132 204.581 38.1673 205.196C40.5668 199.861 45.2741 195.877 47.5084 190.414C48.9123 186.641 51.5825 183.401 52.3258 179.381Z" stroke="white"/>
<path d="M61.6258 180.883C61.9194 180.966 62.5113 181.14 62.8095 181.228C63.3004 185.193 64.4015 189.205 63.6537 193.212C62.1305 189.306 62.2039 184.996 61.6258 180.883Z" stroke="white"/>
<path d="M27.8304 191.843C27.9497 191.375 28.4774 191.246 28.8031 190.956C29.1885 195.644 30.3034 200.239 30.753 204.921C29.6565 204.99 28.5324 204.999 27.5322 204.476C27.1331 203.396 26.9771 202.196 27.4405 201.107C27.9681 202.173 27.3028 204.347 29.0508 204.37C29.1701 200.161 28.0874 196.03 27.8304 191.843Z" stroke="white"/>
<path d="M37.8688 206.262C40.0848 203.937 43.0762 202.577 45.5353 200.532C43.1909 204.42 39.1213 206.69 35.4693 209.143C35.2582 209.387 34.8453 209.883 34.6388 210.127C38.011 209.617 41.4428 209.111 44.6269 207.838C46.5217 207.108 47.9027 205.591 49.4076 204.309C47.8981 207.25 44.7691 208.882 41.7365 209.819C39.0938 210.504 36.2492 211.188 33.579 210.251C35.2674 208.335 36.6989 206.216 38.3689 204.282C38.245 204.778 37.9927 205.771 37.8688 206.262Z" stroke="white"/>
</svg>
