<svg width="47" height="32" viewBox="0 0 47 32" fill="none" xmlns="http://www.w3.org/2000/svg">
<path d="M36.9752 3.53906H26.2188C21.5467 3.53906 18.7613 6.32441 18.7613 10.9966V21.7401C18.7613 26.4251 21.5467 29.2105 26.2188 29.2105H36.9623C41.6345 29.2105 44.4199 26.4251 44.4199 21.7529V10.9966C44.4327 6.32441 41.6474 3.53906 36.9752 3.53906Z" fill="#FFC000"/>
<path d="M39.9787 15.6944L34.4722 10.1879C34.1 9.81563 33.4838 9.81563 33.1116 10.1879C32.7394 10.5601 32.7394 11.1762 33.1116 11.5485L36.9751 15.412H1.67508C1.14881 15.412 0.712398 15.8484 0.712398 16.3747C0.712398 16.9009 1.14881 17.3374 1.67508 17.3374H36.9751L33.1116 21.2009C32.7394 21.5731 32.7394 22.1892 33.1116 22.5615C33.3041 22.754 33.548 22.8439 33.7919 22.8439C34.0358 22.8439 34.2797 22.754 34.4722 22.5615L39.9787 17.055C40.1584 16.8753 40.2611 16.6314 40.2611 16.3747C40.2611 16.118 40.1584 15.8741 39.9787 15.6944Z" fill="white"/>
</svg>
