<svg width="24" height="24" viewBox="0 0 24 24" fill="none" xmlns="http://www.w3.org/2000/svg">
<path opacity="0.4" d="M16.44 2.1001C14.7302 2.1001 13.1665 2.76443 12 3.84282C10.8335 2.76443 9.26979 2.1001 7.56 2.1001C3.93305 2.1001 1 5.05249 1 8.69009C1 9.98758 1.20731 11.1902 1.5675 12.3046C2.42946 15.0297 4.17523 17.1739 5.98696 18.731C7.79294 20.2831 9.7214 21.3012 11.0533 21.7552C11.3621 21.8631 11.7055 21.9001 12 21.9001C12.2945 21.9001 12.6379 21.8631 12.9467 21.7552C14.2786 21.3012 16.2071 20.2831 18.013 18.731C19.8248 17.1739 21.5706 15.0297 22.4325 12.3046C22.7927 11.1902 23 9.98756 23 8.69009C23 5.05249 20.067 2.1001 16.44 2.1001Z" stroke="#292D32" stroke-width="2"/>
</svg>
