<svg width="43" height="32" viewBox="0 0 43 32" fill="none" xmlns="http://www.w3.org/2000/svg">
<path d="M10.0246 2.82227H20.7681C25.4531 2.82227 28.2385 5.60761 28.2385 10.2798V21.0233C28.2385 25.6955 25.4531 28.4808 20.7809 28.4808H10.0246C5.35242 28.4937 2.56707 25.7083 2.56707 21.0361V10.2798C2.56707 5.60761 5.35242 2.82227 10.0246 2.82227Z" fill="#FFC000"/>
<path d="M7.02104 14.9776L12.5276 9.47107C12.8998 9.09884 13.5159 9.09884 13.8881 9.47107C14.2604 9.84331 14.2604 10.4594 13.8881 10.8317L10.0246 14.6952H41.6213C42.1475 14.6952 42.5839 15.1316 42.5839 15.6579C42.5839 16.1841 42.1475 16.6206 41.6213 16.6206H10.0246L13.8881 20.4841C14.2604 20.8563 14.2604 21.4725 13.8881 21.8447C13.6956 22.0372 13.4517 22.1271 13.2079 22.1271C12.964 22.1271 12.7201 22.0372 12.5276 21.8447L7.02104 16.3382C6.84134 16.1585 6.73866 15.9146 6.73866 15.6579C6.73866 15.4012 6.84134 15.1573 7.02104 14.9776Z" fill="white"/>
</svg>
