<svg width="26" height="18" viewBox="0 0 26 18" fill="none" xmlns="http://www.w3.org/2000/svg">
<path d="M20.235 1.89697H14.2828C11.6973 1.89697 10.156 3.43829 10.156 6.02373V11.9688C10.156 14.5613 11.6973 16.1027 14.2828 16.1027H20.2279C22.8133 16.1027 24.3546 14.5613 24.3546 11.9759V6.02373C24.3617 3.43829 22.8204 1.89697 20.235 1.89697Z" fill="#FFC000"/>
<path d="M21.897 8.62348L18.8499 5.57636C18.6439 5.37038 18.303 5.37038 18.097 5.57636C17.891 5.78234 17.891 6.12328 18.097 6.32926L20.2349 8.46722H0.701071C0.409855 8.46722 0.168358 8.70872 0.168358 8.99993C0.168358 9.29115 0.409855 9.53265 0.701071 9.53265H20.2349L18.097 11.6706C17.891 11.8766 17.891 12.2175 18.097 12.4235C18.2035 12.53 18.3385 12.5798 18.4734 12.5798C18.6084 12.5798 18.7434 12.53 18.8499 12.4235L21.897 9.37639C21.9965 9.27695 22.0533 9.14199 22.0533 8.99993C22.0533 8.85788 21.9965 8.72292 21.897 8.62348Z" fill="white"/>
</svg>
