<svg width="23" height="22" viewBox="0 0 23 22" fill="none" xmlns="http://www.w3.org/2000/svg">
<g clip-path="url(#clip0_128_1281)" filter="url(#filter0_di_128_1281)">
<path d="M17.8384 10.8149C18.004 10.8827 18.004 11.1173 17.8384 11.1851L5.36737 16.2929C5.1949 16.3635 5.02807 16.1806 5.11421 16.0153L7.17221 12.0667L7.25297 11.9082C7.54378 11.3377 7.54378 10.6623 7.25297 10.0918L7.17221 9.93333L5.11421 5.98466C5.02807 5.81938 5.1949 5.63651 5.36737 5.70714L17.8384 10.8149ZM20.6323 11.9278C21.468 11.5916 21.468 10.4084 20.6323 10.0722L3.53666 3.19529C3.24174 3.07665 2.90457 3.14383 2.67765 3.36644C2.43825 3.60129 2.37069 3.96051 2.5084 4.26628L5.17128 10.1787C5.40652 10.701 5.40652 11.299 5.17128 11.8213L2.5084 17.7337C2.37069 18.0395 2.43825 18.3987 2.67765 18.6336C2.90457 18.8562 3.24174 18.9233 3.53665 18.8047L20.6323 11.9278Z" fill="#FFC000"/>
</g>
<defs>
<filter id="filter0_di_128_1281" x="-2.04918" y="0" width="24.9878" height="25.0165" filterUnits="userSpaceOnUse" color-interpolation-filters="sRGB">
<feFlood flood-opacity="0" result="BackgroundImageFix"/>
<feColorMatrix in="SourceAlpha" type="matrix" values="0 0 0 0 0 0 0 0 0 0 0 0 0 0 0 0 0 0 127 0" result="hardAlpha"/>
<feOffset dx="-1.50827" dy="2.26241"/>
<feGaussianBlur stdDeviation="0.377069"/>
<feColorMatrix type="matrix" values="0 0 0 0 0 0 0 0 0 0 0 0 0 0 0 0 0 0 0.1 0"/>
<feBlend mode="normal" in2="BackgroundImageFix" result="effect1_dropShadow_128_1281"/>
<feBlend mode="normal" in="SourceGraphic" in2="effect1_dropShadow_128_1281" result="shape"/>
<feColorMatrix in="SourceAlpha" type="matrix" values="0 0 0 0 0 0 0 0 0 0 0 0 0 0 0 0 0 0 127 0" result="hardAlpha"/>
<feOffset dx="-0.754137" dy="0.754137"/>
<feGaussianBlur stdDeviation="0.754137"/>
<feComposite in2="hardAlpha" operator="arithmetic" k2="-1" k3="1"/>
<feColorMatrix type="matrix" values="0 0 0 0 1 0 0 0 0 1 0 0 0 0 1 0 0 0 0.25 0"/>
<feBlend mode="normal" in2="shape" result="effect2_innerShadow_128_1281"/>
</filter>
<clipPath id="clip0_128_1281">
<rect width="22.7254" height="22" fill="white" transform="translate(0.213234)"/>
</clipPath>
</defs>
</svg>
