<svg width="21" height="15" viewBox="0 0 21 15" fill="none" xmlns="http://www.w3.org/2000/svg">
<path d="M8.67004 10.8911L13.86 7.89111L8.67004 4.89111V10.8911ZM20.23 3.06111C20.36 3.53111 20.45 4.16111 20.51 4.96111C20.58 5.76111 20.61 6.45111 20.61 7.05111L20.67 7.89111C20.67 10.0811 20.51 11.6911 20.23 12.7211C19.98 13.6211 19.4 14.2011 18.5 14.4511C18.03 14.5811 17.17 14.6711 15.85 14.7311C14.55 14.8011 13.36 14.8311 12.26 14.8311L10.67 14.8911C6.48004 14.8911 3.87004 14.7311 2.84004 14.4511C1.94004 14.2011 1.36004 13.6211 1.11004 12.7211C0.980044 12.2511 0.890044 11.6211 0.830044 10.8211C0.760044 10.0211 0.730044 9.33111 0.730044 8.73111L0.670044 7.89111C0.670044 5.70111 0.830044 4.09111 1.11004 3.06111C1.36004 2.16111 1.94004 1.58111 2.84004 1.33111C3.31004 1.20111 4.17004 1.11111 5.49004 1.05111C6.79004 0.981113 7.98004 0.951113 9.08004 0.951113L10.67 0.891113C14.86 0.891113 17.47 1.05111 18.5 1.33111C19.4 1.58111 19.98 2.16111 20.23 3.06111Z" fill="white"/>
</svg>
